<svg width="64" height="64" xmlns="http://www.w3.org/2000/svg" xmlns:xlink="http://www.w3.org/1999/xlink" overflow="hidden"><g transform="translate(-363 -37)"><path d="M365.5 70.0001C365.5 53.1554 379.155 39.5001 396 39.5001 412.845 39.5001 426.5 53.1554 426.5 70.0001 426.5 86.8447 412.845 100.5 396 100.5 379.155 100.5 365.5 86.8447 365.5 70.0001Z" stroke="#767171" stroke-width="1.33333" stroke-miterlimit="8" fill="#FFFFFF" fill-rule="evenodd"/><g><g><g><path d="M403.667 60.3125C403.667 64.8228 400.01 68.4792 395.5 68.4792 390.99 68.4792 387.333 64.8228 387.333 60.3125 387.333 55.8022 390.99 52.1458 395.5 52.1458 400.01 52.1458 403.667 55.8022 403.667 60.3125Z" fill="#29A8D5"/><path d="M411.833 86.8542 411.833 78.6875C411.833 77.4625 411.221 76.2375 410.2 75.4208 407.954 73.5833 405.096 72.3583 402.237 71.5417 400.196 70.9292 397.95 70.5208 395.5 70.5208 393.254 70.5208 391.008 70.9292 388.763 71.5417 385.904 72.3583 383.046 73.7875 380.8 75.4208 379.779 76.2375 379.167 77.4625 379.167 78.6875L379.167 86.8542 411.833 86.8542Z" fill="#29A8D5"/></g></g></g></g></svg>